<?xml version="1.0" encoding="UTF-8" standalone="no"?>
<!-- Created with Inkscape (http://www.inkscape.org/) -->

<svg
   xmlns:dc="http://purl.org/dc/elements/1.1/"
   xmlns:cc="http://creativecommons.org/ns#"
   xmlns:rdf="http://www.w3.org/1999/02/22-rdf-syntax-ns#"
   xmlns:svg="http://www.w3.org/2000/svg"
   xmlns="http://www.w3.org/2000/svg"
   version="1.1"
   width="256"
   height="256"
   id="svg2">
  <defs
     id="defs4" />
  <metadata
     id="metadata7">
    <rdf:RDF>
      <cc:Work
         rdf:about="">
        <dc:format>image/svg+xml</dc:format>
        <dc:type
           rdf:resource="http://purl.org/dc/dcmitype/StillImage" />
        <dc:title></dc:title>
      </cc:Work>
    </rdf:RDF>
  </metadata>
  <g
     transform="translate(0,-796.36218)"
     id="layer1">
    <g
       id="text2993"
       style="font-size:256px;font-style:normal;font-variant:normal;font-weight:normal;font-stretch:normal;text-indent:0;text-align:center;text-decoration:none;line-height:129.99999523%;letter-spacing:0px;word-spacing:0px;text-transform:none;direction:ltr;block-progression:tb;writing-mode:lr-tb;text-anchor:middle;color:#000000;fill:#000000;fill-opacity:1;fill-rule:nonzero;stroke:none;stroke-width:1px;marker:none;visibility:visible;display:inline;overflow:visible;enable-background:accumulate;font-family:Source Sans Pro;-inkscape-font-specification:Source Sans Pro">
      <path
         d="m 79.125,978.73718 11.5,-12.25 c 5.749898,5.33339 12.41656,8.00006 20,8 4.83321,6e-5 10.74987,-1.83328 17.75,-5.5 6.99986,3.66672 12.91652,5.50006 17.75,5.5 7.58317,6e-5 14.24983,-2.66661 20,-8 l 11.5,12.25 c -9.00017,8.33338 -19.50016,12.50004 -31.5,12.5 -6.16681,4e-5 -12.08347,-1.16663 -17.75,-3.5 -5.75013,2.33337 -11.66679,3.50004 -17.75,3.5 -12.000104,4e-5 -22.500094,-4.16662 -31.5,-12.5 m 68.5,-40.5 7.75,15 c -10.16682,5.08341 -19.29181,7.62507 -27.375,7.625 -8.08346,7e-5 -17.20845,-2.54159 -27.375,-7.625 l 7.75,-15 c 7.49988,3.83342 14.04154,5.75009 19.625,5.75 5.58319,9e-5 12.12485,-1.91658 19.625,-5.75 m -43.75,-27 c -3.58344,6.33345 -8.750101,10.66678 -15.5,13 -2.666758,0.91677 -5.666755,1.37511 -9,1.375 -5.833413,1.1e-4 -11.000074,-1.45823 -15.5,-4.375 -1.750068,-2.99989 -2.625067,-6.37488 -2.625,-10.125 -6.7e-5,-5.91654 2.208264,-10.87487 6.625,-14.875 3.916589,-3.66653 8.583251,-5.49986 14,-5.5 5.83324,1.4e-4 10.833235,2.0418 15,6.125 4.24989,4.00013 6.58322,8.79179 7,14.375 m -10.375,-3.625 c -3.000096,1.2e-4 -5.500094,1.00012 -7.5,3 -2.00009,2.00012 -3.000089,4.50012 -3,7.5 -8.9e-5,1.16678 0.208244,2.37511 0.625,3.625 3.583241,-0.58322 6.791571,-1.95822 9.625,-4.125 2.916565,-2.16655 5.124896,-4.79155 6.625,-7.875 -1.833437,-1.41654 -3.958435,-2.12488 -6.375,-2.125 m 58.625,3.625 c 0.41651,-5.58321 2.70817,-10.37487 6.875,-14.375 4.1665,-4.0832 9.16649,-6.12486 15,-6.125 5.49981,1.4e-4 10.20814,1.83347 14.125,5.5 4.41647,4.00013 6.6248,8.95846 6.625,14.875 -2e-4,3.75012 -0.8752,7.12511 -2.625,10.125 -4.50019,2.91677 -9.66685,4.37511 -15.5,4.375 -3.33351,1.1e-4 -6.33351,-0.45823 -9,-1.375 -6.75017,-2.33322 -11.91683,-6.66655 -15.5,-13 m 20.5,10 c 0.99982,0.25011 2.58315,0.37511 4.75,0.375 3.99981,1.1e-4 7.66648,-0.91656 11,-2.75 1.33314,-1.99989 1.9998,-4.16655 2,-6.5 -2e-4,-1.16655 -0.16686,-2.24988 -0.5,-3.25 -1.00019,-0.24988 -2.04186,-0.37488 -3.125,-0.375 -3.66686,1.2e-4 -6.83352,1.25012 -9.5,3.75 -2.66685,2.41678 -4.20851,5.33345 -4.625,8.75 m 51,15.75 c 1.49977,-10.83323 2.24977,-21.08322 2.25,-30.75 -2.3e-4,-3.8332 -0.20856,-7.87487 -0.625,-12.125 -0.4169,-4.24986 -0.83356,-7.66652 -1.25,-10.25 -0.4169,-2.58318 -1.08356,-6.33318 -2,-11.25 -0.91689,-4.9165 -1.54189,-8.4165 -1.875,-10.5 -2.25022,-13.41648 -5.12522,-27.08314 -8.625,-41 -20.2502,4.83354 -36.75018,15.41686 -49.5,31.75 -9.66682,-1.74982 -20.95848,-2.62482 -33.875,-2.625 -13.08345,1.8e-4 -24.45844,0.87518 -34.125,2.625 -12.750087,-16.33314 -29.25007,-26.91646 -49.5,-31.75 -3.500047,13.91686 -6.375044,27.58352 -8.625,41 -0.416708,2.25017 -1.083374,5.75016 -2,10.5 -0.833372,4.75015 -1.500038,8.50015 -2,11.25 -0.416704,2.66681 -0.83337,6.12514 -1.25,10.375 -0.416703,4.1668 -0.625036,8.1668 -0.625,12 -3.6e-5,9.66678 0.749964,19.91677 2.25,30.75 l 40.25,-5.375 1.25,8.25 -40.125,5.5 c 1.166626,5.75008 2.708291,11.29174 4.625,16.625 l 35.75,-15.125 3.25,7.75 -35.875,15.25 c 8.583278,19.25004 19.708267,33.83332 33.375,43.75002 15.083238,11 32.83322,16.5 53.25,16.5 20.41651,0 38.16649,-5.5 53.25,-16.5 13.66647,-9.9167 24.79145,-24.49998 33.375,-43.75002 l -35.875,-15.25 3.25,-7.75 35.75,15.125 c 1.74977,-4.74993 3.24977,-10.29159 4.5,-16.625 l -40,-5.5 1.25,-8.25 40.125,5.375 m -208.125,2.25 c -1.416686,-10.33323 -2.125019,-21.45822 -2.125,-33.375 -1.9e-5,-4.74987 0.124981,-9.3332 0.375,-13.75 0.333314,-4.41652 0.87498,-9.08319 1.625,-14 0.833311,-4.99984 1.499977,-8.83317 2,-11.5 0.499976,-2.74983 1.374976,-7.1665 2.625,-13.25 1.333306,-6.16648 2.208305,-10.24981 2.625,-12.25 1.916636,-9.7498 4.458301,-20.45812 7.625,-32.125 l 1.875,-7.25 7.5,1.125 c 11.916609,1.83356 23.124932,5.62522 33.625,11.375 10.583244,5.66688 19.749901,12.54187 27.5,20.625 8.74988,-1.08314 17.83321,-1.6248 27.25,-1.625 9.41652,2e-4 18.49985,0.54186 27.25,1.625 7.74983,-8.08313 16.87482,-14.95812 27.375,-20.625 10.58313,-5.74978 21.83312,-9.54144 33.75,-11.375 l 7.375,-1.125 2,7.25 c 3.16643,11.66688 5.7081,22.3752 7.625,32.125 0.41643,2.00019 1.24976,6.08352 2.5,12.25 1.33309,6.0835 2.24976,10.50017 2.75,13.25 0.49976,2.66683 1.12475,6.50016 1.875,11.5 0.83309,4.91681 1.37475,9.58348 1.625,14 0.33309,4.4168 0.49975,9.00013 0.5,13.75 -2.5e-4,11.91678 -0.70858,23.04177 -2.125,33.375 l 13.5,1.875 -1.25,8.25 -13.625,-1.75 c -1.25024,6.75008 -3.20857,13.75007 -5.875,21 l 13.75,5.75 -3.25,7.75 -13.625,-5.75 c -9.75023,22.08337 -22.75021,39.04172 -39,50.87502 -18.08351,13.1666 -39.12516,19.75 -63.125,19.75 -24.08344,0 -45.166755,-6.5834 -63.25,-19.75 -16.083388,-11.6667 -29.041708,-28.62499 -38.875,-50.87502 l -13.625,5.75 -3.25,-7.75 13.625,-5.75 c -2.500026,-6.74993 -4.416691,-13.74992 -5.75,-21 l -13.625,1.75 -1.25,-8.25 13.5,-1.875"
         id="path3017"
         style="marker:none" />
    </g>
  </g>
</svg>
